<svg width="2048" height="1024" xmlns="http://www.w3.org/2000/svg">
  <!-- Base color -->
  <rect width="2048" height="1024" fill="#e8d9b0"/>
  
  <!-- Cloud bands -->
  <rect y="100" width="2048" height="150" fill="#d4b36b" fill-opacity="0.7"/>
  <rect y="250" width="2048" height="100" fill="#c19553" fill-opacity="0.8"/>
  <rect y="350" width="2048" height="200" fill="#e8d9b0" fill-opacity="0.9"/>
  <rect y="550" width="2048" height="120" fill="#c19553" fill-opacity="0.8"/>
  <rect y="670" width="2048" height="180" fill="#d4b36b" fill-opacity="0.7"/>
  <rect y="850" width="2048" height="74" fill="#e8d9b0" fill-opacity="0.9"/>
  
  <!-- Great Red Spot -->
  <ellipse cx="600" cy="400" rx="200" ry="100" fill="#c14b53" fill-opacity="0.8"/>
  
  <!-- Smaller storms and details -->
  <ellipse cx="1200" cy="300" rx="80" ry="40" fill="#ffffff" fill-opacity="0.5"/>
  <ellipse cx="1600" cy="600" rx="100" ry="50" fill="#ffffff" fill-opacity="0.4"/>
  <ellipse cx="400" cy="700" rx="60" ry="30" fill="#ffffff" fill-opacity="0.5"/>
  <ellipse cx="1800" cy="200" rx="70" ry="35" fill="#ffffff" fill-opacity="0.4"/>
  
  <!-- Swirling cloud patterns -->
  <path d="M0 150 Q 200 180, 400 150 T 800 180 T 1200 150 T 1600 180 T 2048 150" stroke="#c19553" stroke-width="20" fill="none" opacity="0.3"/>
  <path d="M0 350 Q 200 320, 400 350 T 800 320 T 1200 350 T 1600 320 T 2048 350" stroke="#d4b36b" stroke-width="15" fill="none" opacity="0.3"/>
  <path d="M0 550 Q 200 580, 400 550 T 800 580 T 1200 550 T 1600 580 T 2048 550" stroke="#c19553" stroke-width="25" fill="none" opacity="0.3"/>
  <path d="M0 750 Q 200 720, 400 750 T 800 720 T 1200 750 T 1600 720 T 2048 750" stroke="#d4b36b" stroke-width="20" fill="none" opacity="0.3"/>
  
  <!-- Subtle texture overlay -->
  <filter id="noise" x="0%" y="0%" width="100%" height="100%">
    <feTurbulence type="fractalNoise" baseFrequency="0.01" numOctaves="3" result="noise"/>
    <feColorMatrix type="matrix" values="1 0 0 0 0 0 1 0 0 0 0 0 1 0 0 0 0 0 0.05 0" in="noise" result="coloredNoise"/>
    <feComposite operator="in" in="coloredNoise" in2="SourceGraphic" result="noisyImage"/>
  </filter>
  
  <rect width="2048" height="1024" fill="none" filter="url(#noise)"/>
  
  <!-- Atmospheric glow at poles -->
  <rect y="0" width="2048" height="100" fill="url(#poleGradient1)" fill-opacity="0.5"/>
  <rect y="924" width="2048" height="100" fill="url(#poleGradient2)" fill-opacity="0.5"/>
  
  <!-- Gradient definitions -->
  <defs>
    <linearGradient id="poleGradient1" x1="0%" y1="0%" x2="0%" y2="100%">
      <stop offset="0%" style="stop-color:#a0d8ff;stop-opacity:0.7"/>
      <stop offset="100%" style="stop-color:#a0d8ff;stop-opacity:0"/>
    </linearGradient>
    
    <linearGradient id="poleGradient2" x1="0%" y1="100%" x2="0%" y2="0%">
      <stop offset="0%" style="stop-color:#a0d8ff;stop-opacity:0.7"/>
      <stop offset="100%" style="stop-color:#a0d8ff;stop-opacity:0"/>
    </linearGradient>
  </defs>
</svg>