<svg width="2048" height="1024" xmlns="http://www.w3.org/2000/svg">
  <!-- Base color (pale yellow) -->
  <rect width="2048" height="1024" fill="#e8d9b0"/>
  
  <!-- Cloud bands -->
  <rect y="100" width="2048" height="100" fill="#d4c9a0" fill-opacity="0.7"/>
  <rect y="200" width="2048" height="150" fill="#c9b990" fill-opacity="0.8"/>
  <rect y="350" width="2048" height="120" fill="#e8d9b0" fill-opacity="0.9"/>
  <rect y="470" width="2048" height="180" fill="#c9b990" fill-opacity="0.8"/>
  <rect y="650" width="2048" height="150" fill="#d4c9a0" fill-opacity="0.7"/>
  <rect y="800" width="2048" height="124" fill="#e8d9b0" fill-opacity="0.9"/>
  
  <!-- Subtle storms and details -->
  <ellipse cx="500" cy="300" rx="60" ry="30" fill="#f0e6c0" fill-opacity="0.5"/>
  <ellipse cx="1200" cy="400" rx="80" ry="40" fill="#f0e6c0" fill-opacity="0.4"/>
  <ellipse cx="1700" cy="600" rx="70" ry="35" fill="#f0e6c0" fill-opacity="0.5"/>
  <ellipse cx="300" cy="700" rx="50" ry="25" fill="#f0e6c0" fill-opacity="0.4"/>
  
  <!-- Swirling cloud patterns -->
  <path d="M0 150 Q 200 170, 400 150 T 800 170 T 1200 150 T 1600 170 T 2048 150" stroke="#c9b990" stroke-width="15" fill="none" opacity="0.3"/>
  <path d="M0 300 Q 200 280, 400 300 T 800 280 T 1200 300 T 1600 280 T 2048 300" stroke="#d4c9a0" stroke-width="10" fill="none" opacity="0.3"/>
  <path d="M0 500 Q 200 520, 400 500 T 800 520 T 1200 500 T 1600 520 T 2048 500" stroke="#c9b990" stroke-width="20" fill="none" opacity="0.3"/>
  <path d="M0 700 Q 200 680, 400 700 T 800 680 T 1200 700 T 1600 680 T 2048 700" stroke="#d4c9a0" stroke-width="15" fill="none" opacity="0.3"/>
  
  <!-- Subtle texture overlay -->
  <filter id="noise" x="0%" y="0%" width="100%" height="100%">
    <feTurbulence type="fractalNoise" baseFrequency="0.01" numOctaves="3" result="noise"/>
    <feColorMatrix type="matrix" values="1 0 0 0 0 0 1 0 0 0 0 0 1 0 0 0 0 0 0.05 0" in="noise" result="coloredNoise"/>
    <feComposite operator="in" in="coloredNoise" in2="SourceGraphic" result="noisyImage"/>
  </filter>
  
  <rect width="2048" height="1024" fill="none" filter="url(#noise)"/>
  
  <!-- Atmospheric glow at poles -->
  <rect y="0" width="2048" height="100" fill="url(#poleGradient1)" fill-opacity="0.4"/>
  <rect y="924" width="2048" height="100" fill="url(#poleGradient2)" fill-opacity="0.4"/>
  
  <!-- Gradient definitions -->
  <defs>
    <linearGradient id="poleGradient1" x1="0%" y1="0%" x2="0%" y2="100%">
      <stop offset="0%" style="stop-color:#f5efd0;stop-opacity:0.6"/>
      <stop offset="100%" style="stop-color:#f5efd0;stop-opacity:0"/>
    </linearGradient>
    
    <linearGradient id="poleGradient2" x1="0%" y1="100%" x2="0%" y2="0%">
      <stop offset="0%" style="stop-color:#f5efd0;stop-opacity:0.6"/>
      <stop offset="100%" style="stop-color:#f5efd0;stop-opacity:0"/>
    </linearGradient>
  </defs>
</svg>